<?xml version="1.0" encoding="UTF-8"?>
<svg width="130px" height="80px" viewBox="0 0 130 80" version="1.1" xmlns="http://www.w3.org/2000/svg" xmlns:xlink="http://www.w3.org/1999/xlink">
    <!-- Generator: Sketch 52.2 (67145) - http://www.bohemiancoding.com/sketch -->
    <title>logo-ndtvgame</title>
    <desc>Created with Sketch.</desc>
    <defs>
        <path d="M121.881691,0.252352941 L14.82,5.01838235 C6.46094847,5.4366571 0.0222521142,12.5496879 0.435882353,20.9089706 L0.959705882,31.5383824 C0.967782318,31.6997518 0.981811474,31.8607683 1.00176471,32.0211029 C1.45389706,35.7624265 4.85110294,38.4274265 8.58860294,37.9743382 L115.548971,25.0125735 C117.718824,24.74875 119.547426,23.2633088 120.248088,21.1909559 L125.637353,5.25639706 C125.787426,4.81191176 125.855294,4.34257353 125.833309,3.87323529 C125.7425,1.84007353 124.066838,0.252352941 122.052794,0.252352941 C121.995746,0.252134969 121.9387,0.253091053 121.881691,0.255220588 L121.881691,0.252352941 Z" id="path-1"></path>
        <path d="M122.527868,0.585955882 L17.5624265,4.04625 C14.3353676,4.15139706 11.4591176,6.12529412 10.1830147,9.11051471 L0.815367647,30.9763235 C0.541029412,31.6397059 0.432058824,32.3661765 0.509485294,33.0735294 C0.754191176,35.3752941 2.80838235,37.0423529 5.09772059,36.7938235 L116.641544,24.7573529 C118.882132,24.5145588 120.769044,22.9641176 121.451544,20.8028676 L126.2625,5.54985294 C126.392372,5.13672331 126.451829,4.70469148 126.438382,4.27183824 C126.371471,2.21095588 124.689118,0.585 122.653088,0.585 L122.528824,0.586911765 L122.527868,0.585955882 Z" id="path-3"></path>
        <path d="M122.429412,0.0802941176 L17.3435294,0.420588235 C14.0247059,0.430147059 11.0289706,2.38683824 9.71558824,5.39117647 L0.382352941,26.8354412 C0.107058824,27.4663235 -0.00191176471,28.1593382 0.0611764706,28.8456618 C0.273382353,31.1111029 2.30272059,32.7781618 4.59397059,32.5678676 L117.244706,22.2491176 C119.570368,22.035 121.528971,20.4358088 122.177059,18.2152941 L126.080882,4.875 C126.180294,4.53375 126.230956,4.17911765 126.229044,3.82352941 C126.222353,1.75882353 124.527574,0.0908088235 122.441838,0.0908088235 L122.429412,0.0802941176 Z" id="path-5"></path>
        <linearGradient x1="50%" y1="30.8849991%" x2="50%" y2="50%" id="linearGradient-7">
            <stop stop-color="#FF0D0D" offset="0%"></stop>
            <stop stop-color="#AF0303" offset="100%"></stop>
        </linearGradient>
        <linearGradient x1="50%" y1="50%" x2="50%" y2="62.2061617%" id="linearGradient-8">
            <stop stop-color="#FF0000" offset="0%"></stop>
            <stop stop-color="#B00404" offset="100%"></stop>
        </linearGradient>
        <path d="M0.605073529,3.30735294 C0.605073529,4.67426471 1.68904412,5.81367647 3.04448529,5.81367647 C4.44485294,5.81367647 5.52977941,4.67330882 5.52977941,3.30735294 C5.52977941,1.94139706 4.44485294,0.755147059 3.04352941,0.755147059 C1.68904412,0.755147059 0.604117647,1.94044118 0.604117647,3.30448529 L0.605073529,3.30735294 Z" id="path-9"></path>
    </defs>
    <g id="Page-1" stroke="none" stroke-width="1" fill="none" fill-rule="evenodd">
        <g id="logo-ndtvgame">
            <g id="Group" transform="translate(0.000000, 39.093676)">
                <g transform="translate(3.482279, 2.361985)" id="Clipped">
                    <g>
                        <mask id="mask-2" fill="white">
                            <use xlink:href="#path-1"></use>
                        </mask>
                        <g id="A"></g>
                        <polygon id="Path" fill="#662126" mask="url(#mask-2)" points="-1.47683824 39.9176471 127.729779 39.9176471 127.729779 -1.64698529 -1.47683824 -1.64698529"></polygon>
                    </g>
                </g>
                <g transform="translate(1.118382, 0.000000)" id="Clipped">
                    <g>
                        <mask id="mask-4" fill="white">
                            <use xlink:href="#path-3"></use>
                        </mask>
                        <g id="B"></g>
                        <polygon id="Path" fill="#FEFEFE" mask="url(#mask-4)" points="-1.40801471 38.7352206 128.333897 38.7352206 128.333897 -1.32198529 -1.40801471 -1.32198529"></polygon>
                    </g>
                </g>
                <g id="Clipped">
                    <mask id="mask-6" fill="white">
                        <use xlink:href="#path-5"></use>
                    </mask>
                    <g id="C"></g>
                    <polygon id="Path" fill="url(#linearGradient-7)" mask="url(#mask-6)" points="-1.8525 34.4576471 128.123603 34.4576471 128.123603 -1.79227941 -1.8525 -1.79227941"></polygon>
                </g>
                <g transform="translate(7.647059, 2.867647)" fill="#FEFEFE" fill-rule="nonzero" id="Shape">
                    <path d="M11.5786029,10.3359559 L12.3471324,10.3292647 C13.3441176,10.3197059 14.0963971,10.1017647 14.5991912,9.67544118 C15.1019853,9.24911765 15.5130147,8.60963235 15.8380147,7.70632353 L15.9297794,7.38132353 C16.0655147,6.80779412 16.0196324,6.32411765 15.8007353,5.91882353 C15.5426471,5.44088235 15.0532353,5.18279412 14.3210294,5.17132353 L13.4588235,5.15794118 L11.5786029,10.3369118 M8.05808824,19.5382353 L8.89926471,19.4961765 C9.95073529,19.4426471 10.7861765,19.1358088 11.3845588,18.6033824 C11.9829412,18.0709559 12.4819118,17.2986029 12.8413235,16.3302941 C12.9560294,16.0244118 13.0458824,15.7443382 13.1089706,15.4891176 C13.2791176,14.8008824 13.2638235,14.3105147 13.0917647,14.0132353 C12.8527941,13.6022059 12.2123529,13.4043382 11.18,13.4282353 L10.3560294,13.4473529 L8.05904412,19.5391912 M0.794338235,24.3606618 L9.65823529,0.798161765 L15.3419118,1.08492647 C16.1505882,1.11360294 16.8483824,1.18338235 17.4372059,1.29139706 C18.0260294,1.39941176 18.6072059,1.60683824 19.1864706,1.90316176 C19.7657353,2.19948529 20.1997059,2.59713235 20.4845588,3.07889706 C20.7636765,3.54919118 20.9242647,4.18772059 20.9567647,4.95242647 C20.9758824,5.41794118 20.9357353,5.93029412 20.8267647,6.46080882 C20.7488614,6.83065513 20.643747,7.19424225 20.5122794,7.54860294 C19.6519853,9.94022059 18.1063235,11.1809559 15.8341912,11.6111029 C17.0701471,11.6847059 17.8950735,12.1119853 18.3061029,12.8881618 C18.6311029,13.5018382 18.6827206,14.3066912 18.4466176,15.3428676 C18.3798579,15.629122 18.3017323,15.9126062 18.2124265,16.1926471 C16.8675,20.3277941 13.5716176,23.4535294 8.46242647,23.8205882 L0.784779412,24.3711765 M26.8602941,18.8595588 C27.1634028,18.8466577 27.4590293,18.7614439 27.7225,18.6110294 C27.9728964,18.4634827 28.183539,18.2571054 28.3361765,18.0097794 C28.4763245,17.792405 28.596309,17.5626747 28.6946324,17.3234559 C28.7885229,17.0795154 28.8720777,16.8317214 28.9450735,16.5807353 L31.7582353,7.07926471 C31.8416686,6.84579346 31.8987387,6.60372632 31.9283824,6.35757353 C31.9598061,6.12790095 31.9649373,5.8953941 31.9436765,5.66455882 C31.9207353,5.45426471 31.8308824,5.28029412 31.6569118,5.14264706 C31.4829412,5.005 31.2592647,4.93808824 30.9591176,4.94382353 C30.6589706,4.94955882 30.3932353,5.01742647 30.1657353,5.15125 C29.9323321,5.28984837 29.7397407,5.48771621 29.6075,5.72477941 C29.4641176,5.97330882 29.3522794,6.19889706 29.2729412,6.39867647 C29.1936029,6.59845588 29.1152206,6.84985294 29.0358824,7.14808824 C27.8649265,11.1981618 27.2885294,12.6482353 26.0659559,16.7260294 C25.9933088,16.9688235 25.9388235,17.1695588 25.9034559,17.3263235 C25.8680882,17.4830882 25.8384559,17.6704412 25.8231618,17.8998529 C25.8078676,18.1292647 25.8298529,18.2946324 25.8872059,18.4255882 C25.9445588,18.5565441 26.0516176,18.6693382 26.2122059,18.7582353 C26.3727941,18.8471324 26.5945588,18.8825 26.8526471,18.8672059 M25.8059559,22.9411765 C24.4352206,23.0425 23.3139706,22.9297059 22.4469853,22.6094853 C21.58,22.2892647 20.9701471,21.7683088 20.6136029,21.0838971 C20.2570588,20.3994853 20.0897794,19.5994118 20.1165441,18.7266912 C20.1308824,18.2630882 20.1968382,17.7708088 20.3077206,17.2336029 C20.4071324,16.7556618 20.5447794,16.2586029 20.71875,15.7443382 L23.1638971,8.52169118 C23.4905164,7.49225871 23.9149531,6.49646477 24.4313971,5.54794118 C24.9157213,4.66605267 25.5155753,3.85274586 26.2150735,3.12955882 C26.9141339,2.40458563 27.7620322,1.83975486 28.7003676,1.47397059 C29.6629412,1.09926471 30.7363971,0.907132353 31.9503676,0.906176471 C33.1643382,0.905220588 34.1794853,1.09544118 34.9786029,1.46058824 C35.7777206,1.82573529 36.3627206,2.35911765 36.7374265,3.02823529 C37.1121324,3.69735294 37.3176471,4.46205882 37.3549265,5.29080882 C37.3740441,5.74007353 37.3530147,6.22183824 37.2841912,6.73132353 C37.2187505,7.20078673 37.1223143,7.6654048 36.9955147,8.12213235 L35.08375,15.0580147 C34.5025735,17.1858088 33.4941176,19.0373529 32.0402206,20.4367647 C30.5863235,21.8361765 28.5034559,22.7308824 25.8040441,22.9411765"></path>
                    <path d="M36.5691912,21.775 C38.6405882,11.7238971 39.6394853,11.1169118 41.4728676,1.24073529 L45.1052206,1.21588235 C45.9846324,5.43610294 46.4577941,6.90338235 47.4566912,10.0033088 C48.1411029,6.84125 48.4794853,5.33095588 49.0883824,1.20441176 L53.3898529,1.20441176 C52.2255882,10.3808824 51.4073529,11.4132353 50.0117647,20.8047794 L46.0563235,21.0915441 C45.0306618,16.6313971 44.5766176,15.0694853 43.7211029,11.6665441 C42.8847059,15.1421324 42.4545588,16.7193382 41.5770588,21.4165441 L36.5892647,21.7778676 L36.5691912,21.775 Z M59.9510294,13.4234559 L62.1075,13.3278676 L61.9478676,6.78389706 L59.9405147,13.4234559 L59.9510294,13.4234559 Z M52.4158088,20.6308088 C55.4574265,11.2373529 57.0652206,10.0396324 59.4816912,1.21875 L65.4846324,1.23786765 L67.9202206,19.5114706 L62.5959559,19.8966912 L62.2642647,15.8533088 L59.1366176,16.0186765 C58.687415,17.4138753 58.274336,18.8204476 57.8977941,20.2369853 L52.4138971,20.6327206 L52.4158088,20.6308088 Z M70.3357353,19.3375 C70.7419853,11.0146324 71.35375,9.36764706 71.5095588,1.24838235 L75.14,1.24551471 C76.8147059,4.68669118 77.6826471,5.92169118 79.2646324,8.85242647 C79.4605882,5.83661765 79.5991912,4.27183824 79.5991912,1.20727941 L84.9014706,1.15948529 C84.5764706,7.23889706 83.2554412,11.7841176 83.3414706,18.4093382 L79.7148529,18.6722059 C77.9722794,15.2568382 77.1961029,13.5486765 75.6772059,10.4296324 C75.5108824,13.6146324 75.3961765,15.1211029 75.3235294,18.9790441 L70.3366912,19.3384559 L70.3357353,19.3375 Z M85.6719118,18.2296324 L85.7722794,15.9833088 C88.1352206,11.3252941 90.1932353,7.82294118 93.9488971,3.28632353 L87.86375,3.60176471 C88.0013805,2.78102606 88.1145434,1.95637147 88.2030882,1.12889706 L101.076912,1.02852941 C100.849412,1.49882353 100.702206,1.83816176 100.37625,2.62963235 C96.2611765,6.73992647 93.6066912,11.0471324 90.7409559,15.5502941 L95.7000735,15.4547059 L95.0538971,17.4869118 L85.67,18.2391912 L85.6719118,18.2296324 Z M104.191176,12.2161765 L106.198529,12.1875 L108.636029,4.44198529 L104.193088,12.2171324 L104.191176,12.2161765 Z M96.2458824,17.3808088 C98.9701471,13.6222794 103.816471,3.23375 107.339853,1.00463235 L113.156397,1.02088235 C113.271103,1.90985294 109.451397,15.8819853 110.038309,16.3494118 L104.972132,16.7030882 C105.024706,16.3924265 105.151838,15.9020588 105.483529,14.6641912 L102.644559,14.7024265 C101.784265,15.9689706 101.401912,16.4765441 100.833162,17.0156618 L96.2382353,17.3788971 L96.2458824,17.3808088 Z"></path>
                </g>
            </g>
            <g id="F-link" transform="translate(8.602941, 16.250000)" fill="#D40000" fill-rule="nonzero">
                <path d="M14.3219853,9.74235294 L19.8661029,9.74235294 L19.8661029,17.7813235 C17.69625,19.2275735 14.1088235,20.2857353 11.3281618,20.2857353 C5.21051471,20.2857353 0.759926471,16.0578676 0.759926471,10.2738235 C0.759926471,4.51654412 5.37683824,0.317352941 11.7458824,0.317352941 C14.7760294,0.317352941 18.0872059,1.48544118 20.1729412,3.32073529 L16.5291176,7.74264706 C15.2214706,6.49044118 13.3307353,5.68463235 11.7172059,5.68463235 C9.21279412,5.68463235 7.3775,7.63176471 7.3775,10.2728676 C7.3775,12.9703676 9.24147059,14.9184559 11.7716912,14.9184559 C12.4388971,14.9184559 13.3852206,14.6680147 14.3305882,14.2780147 L14.3305882,9.74426471 L14.3219853,9.74235294 Z M38.2716176,17.2517647 L30.9572059,17.2517647 L29.9563971,20.0047059 L23.3369118,20.0047059 L31.5689706,0.508529412 L38.1884559,0.508529412 L46.1146324,20.0047059 L39.2447059,20.0047059 L38.2716176,17.2517647 Z M36.6867647,12.6348529 L34.6841912,6.93301471 L32.6261765,12.6348529 L36.6867647,12.6348529 Z M72.1213235,19.9951471 L66.5036029,19.9951471 L66.5036029,9.32558824 L63.1675735,18.1139706 L58.9397059,18.1139706 L55.6036765,9.32558824 L55.6036765,20.0066176 L49.9926471,20.0066176 L49.9926471,0.509485294 L56.8061765,0.509485294 L61.0617647,10.6896324 L65.3173529,0.509485294 L72.1308824,0.509485294 L72.1308824,20.0066176 L72.1213235,19.9951471 Z M94.1515441,5.39404412 L84.1119118,5.39404412 L84.1119118,7.78566176 L93.2338971,7.78566176 L93.2338971,12.6797794 L84.1119118,12.6797794 L84.1119118,15.0981618 L94.4019853,15.0981618 L94.4019853,19.9922794 L77.6597059,19.9922794 L77.6597059,0.509485294 L94.1525,0.509485294 L94.1525,5.40360294 L94.1515441,5.39404412 Z" id="F"></path>
            </g>
            <g id="F-link" transform="translate(8.602941, 16.250000)" fill="url(#linearGradient-8)" fill-rule="nonzero">
                <path d="M14.3219853,9.74235294 L19.8661029,9.74235294 L19.8661029,17.7813235 C17.69625,19.2275735 14.1088235,20.2857353 11.3281618,20.2857353 C5.21051471,20.2857353 0.759926471,16.0578676 0.759926471,10.2738235 C0.759926471,4.51654412 5.37683824,0.317352941 11.7458824,0.317352941 C14.7760294,0.317352941 18.0872059,1.48544118 20.1729412,3.32073529 L16.5291176,7.74264706 C15.2214706,6.49044118 13.3307353,5.68463235 11.7172059,5.68463235 C9.21279412,5.68463235 7.3775,7.63176471 7.3775,10.2728676 C7.3775,12.9703676 9.24147059,14.9184559 11.7716912,14.9184559 C12.4388971,14.9184559 13.3852206,14.6680147 14.3305882,14.2780147 L14.3305882,9.74426471 L14.3219853,9.74235294 Z M38.2716176,17.2517647 L30.9572059,17.2517647 L29.9563971,20.0047059 L23.3369118,20.0047059 L31.5689706,0.508529412 L38.1884559,0.508529412 L46.1146324,20.0047059 L39.2447059,20.0047059 L38.2716176,17.2517647 Z M36.6867647,12.6348529 L34.6841912,6.93301471 L32.6261765,12.6348529 L36.6867647,12.6348529 Z M72.1213235,19.9951471 L66.5036029,19.9951471 L66.5036029,9.32558824 L63.1675735,18.1139706 L58.9397059,18.1139706 L55.6036765,9.32558824 L55.6036765,20.0066176 L49.9926471,20.0066176 L49.9926471,0.509485294 L56.8061765,0.509485294 L61.0617647,10.6896324 L65.3173529,0.509485294 L72.1308824,0.509485294 L72.1308824,20.0066176 L72.1213235,19.9951471 Z M94.1515441,5.39404412 L84.1119118,5.39404412 L84.1119118,7.78566176 L93.2338971,7.78566176 L93.2338971,12.6797794 L84.1119118,12.6797794 L84.1119118,15.0981618 L94.4019853,15.0981618 L94.4019853,19.9922794 L77.6597059,19.9922794 L77.6597059,0.509485294 L94.1525,0.509485294 L94.1525,5.40360294 L94.1515441,5.39404412 Z" id="F"></path>
            </g>
            <g id="Group" transform="translate(12.116765, 0.000000)">
                <path d="M13.3661029,10.0979412 L13.2370588,10.0979412 C12.3767647,10.0979412 11.8720588,9.20897059 11.6598529,8.80941176 L9.48808824,4.24029412 C8.46338235,2.10772059 6.63191176,0.822058824 4.58441176,0.822058824 L0.449264706,0.822058824 L0.449264706,13.8249265 L4.45727941,13.8249265 L4.45727941,4.55 L4.58345588,4.55 C5.47911765,4.55 6.03352941,5.52691176 6.16066176,5.83852941 L8.37639706,10.4076471 C9.31316176,12.5392647 11.1484559,13.8258824 13.2351471,13.8258824 L17.3282353,13.8258824 L17.3282353,0.822058824 L13.3632353,0.822058824 L13.3632353,10.0969853 L13.3661029,10.0979412 Z M31.2095588,8.72242647 C31.2095588,10.0539706 30.53375,10.7641912 29.0052941,10.7641912 L22.5970588,10.7641912 L22.5970588,3.88661765 L29.0052941,3.88661765 C30.4907353,3.88661765 31.2095588,4.68286765 31.2095588,5.88154412 L31.2095588,8.72242647 Z M62.4477941,0.822058824 L57.6081618,10.4955882 L52.4722059,0.822058824 L18.7372059,0.822058824 L18.7372059,13.8249265 L29.5577941,13.8249265 C33.2933824,13.8249265 35.0761029,11.5594853 35.0761029,7.83154412 L35.0761029,6.40441176 C35.0761029,6.00676471 35.0761029,4.94 34.7769118,3.87705882 L40.7186765,3.87705882 L40.7186765,13.8182353 L44.5383824,13.8182353 L44.5383824,3.87705882 L49.8846324,3.87705882 L55.1936029,13.8182353 L59.9863971,13.8182353 L66.5609559,0.822058824 L62.4477941,0.822058824 Z" id="Shape" fill="#707070" fill-rule="nonzero"></path>
                <g transform="translate(15.318015, 4.400882)" id="Clipped">
                    <g>
                        <mask id="mask-10" fill="white">
                            <use xlink:href="#path-9"></use>
                        </mask>
                        <g id="G"></g>
                        <polygon id="Path" fill="#D82A2D" mask="url(#mask-10)" points="-5.73816176 12.2333824 11.8720588 12.2333824 11.8720588 -5.66551471 -5.73816176 -5.66551471"></polygon>
                    </g>
                </g>
            </g>
        </g>
    </g>
</svg>