<?xml version="1.0" encoding="utf-8"?>
<!-- Generator: Adobe Illustrator 25.2.0, SVG Export Plug-In . SVG Version: 6.00 Build 0)  -->
<svg version="1.1" id="Layer_1" xmlns="http://www.w3.org/2000/svg" xmlns:xlink="http://www.w3.org/1999/xlink" x="0px" y="0px"
	 viewBox="0 0 828 400" style="enable-background:new 0 0 828 400;" xml:space="preserve">
<style type="text/css">
	.st0{opacity:0.35;}
	.st1{fill-rule:evenodd;clip-rule:evenodd;fill:#AFAFAF;}
</style>
<desc>Created with Sketch.</desc>
<g id="Clip-2">
</g>
<g class="st0">
	<path class="st1" d="M102,42.8c0-6.8,4.6-12.8,11-14.6V2.8H87.6v57h-0.8c-5.5,0-8.7-5.5-10.1-7.9L62.8,23.8
		c-6.5-13.1-18.3-21-31.3-21H5v79.8h25.6V25.7h0.8c5.7,0,9.3,6,10.1,7.9l14.2,28.1c6,13.1,17.7,21,31.1,21H113V57.2
		C106.6,55.4,102,49.6,102,42.8z"/>
	<path class="st1" d="M401.5,2.8l-31.1,59.4l-33-59.4h-164h-52.6v25.3c6.6,1.8,11.3,7.9,11.3,14.7s-4.7,12.7-11.3,14.4v25.4h52.6
		v-0.1h16.9c24,0,35.4-13.9,35.4-36.8V37c0-2.4,0-9-1.9-15.5H262v61h24.5v-61h34.3l34.1,61h30.8L428,2.8H401.5z M200.9,51.2
		c0,8.2-4.4,12.5-14.2,12.5h-13.3v0.2h-27.8V21.7h27.8v-0.1h13.3c9.6,0,14.2,4.9,14.2,12.2V51.2z"/>
</g>
<g id="Clip-10">
</g>
<g class="st0">
	<path class="st1" d="M597.6,29.4c-167.8-1.5-172.4,106.9-172.4,106.9s29.8-20.8,90.4-21.5c93.8-0.8,91.9-79,90.4-86
		C604.4,21.8,597.6,29.4,597.6,29.4z"/>
	<path class="st1" d="M467.2,141.4c-20.4,0-39.6,4.7-56.7,13.2c-23.3-32.3-61.3-53.4-104.2-53.4c-70.9,0-128.3,57.4-128.3,128.3
		s57.5,128.3,128.3,128.3c20.4,0,39.6-4.8,56.7-13.2C386.3,377,424.3,398,467.2,398c70.9,0,128.3-57.4,128.3-128.3
		S538,141.4,467.2,141.4z M467.2,333.7c-35.3,0-64-28.6-64-64c0-35.3,28.7-64,64-64s64,28.6,64,64
		C531.2,305,502.5,333.7,467.2,333.7z M306.3,165.5c23.5,0,44,12.7,55.2,31.6c-14.2,20.7-22.5,45.7-22.5,72.7
		c0,4.9,0.3,9.6,0.8,14.4c-9.7,6-21.2,9.4-33.4,9.4c-35.3,0-64-28.6-64-64C242.3,194.2,271,165.5,306.3,165.5z"/>
	<polygon class="st1" points="6.1,373.1 68.2,373.1 68.2,274.7 144.3,274.7 144.3,226.1 68.2,226.1 68.2,172 153.1,172 153.1,123.4 
		6.1,123.4 	"/>
	<path class="st1" d="M821.5,226.7c0-57.4-46.5-103.9-103.9-103.9h-102v250.8h102c57.4,0,103.9-46.5,103.9-103.9
		c0,0,0.5-16.2,0.5-21.5C821.9,242.9,821.5,226.7,821.5,226.7z M677.5,178.3h31.7c22.9,0,45.9,31.9,45.9,54.8c0,0,0.6,11.3,0.6,15.1
		s-0.6,15.2-0.6,15.2c0,22.9-23,54.8-45.9,54.8h-31.7V178.3z"/>
</g>
</svg>
