<?xml version="1.0" encoding="utf-8"?>
<!-- Generator: Adobe Illustrator 26.5.0, SVG Export Plug-In . SVG Version: 6.00 Build 0)  -->
<svg version="1.1" id="Layer_1" xmlns="http://www.w3.org/2000/svg" xmlns:xlink="http://www.w3.org/1999/xlink" x="0px" y="0px"
	 viewBox="0 0 145.9 44.1" style="enable-background:new 0 0 145.9 44.1;" xml:space="preserve">
<style type="text/css">
	.st0{fill:#E03264;}
	.st1{fill:#FFFFFF;}
	.st2{filter:url(#Adobe_OpacityMaskFilter);}
	.st3{fill-rule:evenodd;clip-rule:evenodd;fill:#FFFFFF;}
	.st4{mask:url(#mask-10_00000132088040129968047310000006175704898248227494_);fill-rule:evenodd;clip-rule:evenodd;fill:#D82A2D;}
	.st5{filter:url(#Adobe_OpacityMaskFilter_00000049914127409856791240000002061194011223117247_);}
	.st6{mask:url(#mask-6_00000078765069444995001460000016999854726590688143_);fill-rule:evenodd;clip-rule:evenodd;fill:#E03264;}
	.st7{fill:#FEFEFE;}
</style>
<g id="Page-1">
	<g id="logo-ndtvgame">
		<g id="F-link" transform="translate(8.602941, 16.250000)">
			<path id="F" class="st0" d="M77.7-7h4v5.8c-1.6,1-4.2,1.8-6.2,1.8c-4.4,0-7.6-3.1-7.6-7.2c0-4.2,3.3-7.2,7.9-7.2
				c2.2,0,4.6,0.8,6.1,2.2l-2.6,3.2C78.4-9.4,77-10,75.8-10c-1.8,0-3.1,1.4-3.1,3.3c0,1.9,1.3,3.4,3.2,3.4c0.5,0,1.2-0.2,1.8-0.5
				L77.7-7L77.7-7z M95-1.6h-5.3l-0.7,2h-4.8l5.9-14.1h4.8l5.7,14.1h-5L95-1.6z M93.9-4.9l-1.4-4.1l-1.5,4.1H93.9z M119.4,0.4h-4.1
				v-7.7L113-1h-3.1l-2.4-6.3v7.7h-4.1v-14.1h4.9l3.1,7.3l3.1-7.3h4.9L119.4,0.4L119.4,0.4z M135.3-10.2h-7.2v1.7h6.6v3.5h-6.6v1.7
				h7.4v3.5h-12.1v-14.1h11.9L135.3-10.2L135.3-10.2z"/>
		</g>
		<g id="Group_00000136381251010312239300000000762043163157686183_" transform="translate(12.116765, 0.000000)">
			<path id="Shape_00000132775542837648764500000009884116077532352701_" class="st1" d="M6.9,12.6H6.8c-0.9,0-1.5-1-1.7-1.4
				L2.7,6.3C1.6,4-0.3,2.6-2.6,2.6H-7v14.1h4.3v-10h0.1c1,0,1.6,1.1,1.7,1.4l2.4,4.9c1,2.3,3,3.7,5.3,3.7h4.4V2.6H6.9L6.9,12.6
				L6.9,12.6z M26.2,11.1c0,1.4-0.7,2.2-2.4,2.2h-6.9V5.9h6.9c1.6,0,2.4,0.9,2.4,2.2V11.1z M60,2.6L54.7,13L49.2,2.6H12.7v14.1h11.7
				c4,0,6-2.4,6-6.5V8.6c0-0.4,0-1.6-0.3-2.7h6.4v10.7h4.1V5.9h5.8l5.7,10.7h5.2l7.1-14H60z"/>
			<g id="Clipped_00000023241813470343321780000012436157117838163107_" transform="translate(15.318015, 4.400882)">
				<g>
					<g id="G">
					</g>
					<defs>
						<filter id="Adobe_OpacityMaskFilter" filterUnits="userSpaceOnUse" x="-12.5" y="-4.1" width="19" height="19.3">
							<feColorMatrix  type="matrix" values="1 0 0 0 0  0 1 0 0 0  0 0 1 0 0  0 0 0 1 0"/>
						</filter>
					</defs>
					
						<mask maskUnits="userSpaceOnUse" x="-12.5" y="-4.1" width="19" height="19.3" id="mask-10_00000132088040129968047310000006175704898248227494_">
						<g class="st2">
							<path id="path-9_00000109725569744689419030000002678203416067537309_" class="st3" d="M-5.6,5.6c0,1.5,1.2,2.7,2.6,2.7
								c1.5,0,2.7-1.2,2.7-2.7S-1.5,2.9-3,2.9C-4.4,2.9-5.6,4.1-5.6,5.6L-5.6,5.6z"/>
						</g>
					</mask>
					<polygon id="Path_00000068659307721785431760000018174008709271364268_" class="st4" points="-12.5,15.3 6.6,15.3 6.6,-4.1 
						-12.5,-4.1 					"/>
				</g>
			</g>
		</g>
		<g id="Group" transform="translate(0.000000, 39.093676)">
			<g id="Clipped_00000101808405218549466860000002003494747703148175_">
				<g id="C">
				</g>
				<defs>
					
						<filter id="Adobe_OpacityMaskFilter_00000149340427037454056900000007822899217426484129_" filterUnits="userSpaceOnUse" x="0" y="-22" width="146.9" height="27">
						<feColorMatrix  type="matrix" values="1 0 0 0 0  0 1 0 0 0  0 0 1 0 0  0 0 0 1 0"/>
					</filter>
				</defs>
				
					<mask maskUnits="userSpaceOnUse" x="0" y="-22" width="146.9" height="27" id="mask-6_00000078765069444995001460000016999854726590688143_">
					<g style="filter:url(#Adobe_OpacityMaskFilter_00000149340427037454056900000007822899217426484129_);">
						<path id="path-5_00000181060583358019224180000006633743650181828484_" class="st3" d="M140.5-20.6L21.7-20.4
							c-3.8,0-7.1,1.5-8.6,3.7L2.5-0.7c-0.3,0.5-0.4,1-0.4,1.5c0.2,1.7,2.5,2.9,5.1,2.8l127.3-7.7c2.6-0.2,4.8-1.4,5.6-3l4.4-10
							c0.1-0.3,0.2-0.5,0.2-0.8C144.8-19.4,142.9-20.6,140.5-20.6L140.5-20.6z"/>
					</g>
				</mask>
				<polygon id="Path_00000047046515927042394700000016734026537259025550_" class="st6" points="0,5 146.9,5 146.9,-22 0,-22 				
					"/>
			</g>
			<g id="Shape" transform="translate(7.647059, 2.867647)">
				<path class="st7" d="M16.2-12.9l0.9,0c1.1,0,2-0.2,2.5-0.5c0.6-0.3,1-0.9,1.4-1.6l0.1-0.3c0.2-0.5,0.1-0.8-0.1-1.2
					c-0.3-0.4-0.8-0.6-1.7-0.6l-1,0L16.2-12.9 M12.2-5.5l1,0c1.2,0,2.1-0.3,2.8-0.7s1.2-1,1.6-1.8c0.1-0.2,0.2-0.5,0.3-0.7
					c0.2-0.6,0.2-0.9,0-1.2c-0.3-0.3-1-0.5-2.2-0.5l-0.9,0L12.2-5.5 M4-1.6l10-18.9l6.4,0.2c0.9,0,1.7,0.1,2.4,0.2s1.3,0.3,2,0.5
					c0.7,0.2,1.1,0.6,1.5,0.9c0.3,0.4,0.5,0.9,0.5,1.5c0,0.4,0,0.8-0.1,1.2c-0.1,0.3-0.2,0.6-0.4,0.9c-1,1.9-2.7,2.9-5.3,3.3
					c1.4,0.1,2.3,0.4,2.8,1c0.4,0.5,0.4,1.1,0.2,2c-0.1,0.2-0.2,0.5-0.3,0.7c-1.5,3.3-5.2,5.8-11,6.1L4-1.6 M33.5-6
					c0.3,0,0.7-0.1,1-0.2c0.3-0.1,0.5-0.3,0.7-0.5c0.2-0.2,0.3-0.4,0.4-0.5c0.1-0.2,0.2-0.4,0.3-0.6l3.2-7.6
					c0.1-0.2,0.2-0.4,0.2-0.6c0-0.2,0-0.4,0-0.6c0-0.2-0.1-0.3-0.3-0.4c-0.2-0.1-0.4-0.2-0.8-0.2c-0.3,0-0.6,0.1-0.9,0.2
					c-0.3,0.1-0.5,0.3-0.6,0.5c-0.2,0.2-0.3,0.4-0.4,0.5s-0.2,0.4-0.3,0.6c-1.3,3.2-2,4.4-3.4,7.7c-0.1,0.2-0.1,0.4-0.2,0.5
					c0,0.1-0.1,0.3-0.1,0.5s0,0.3,0.1,0.4c0.1,0.1,0.2,0.2,0.4,0.3C32.9-6,33.2-6,33.5-6 M32.3-2.8c-1.5,0.1-2.8,0-3.8-0.3
					c-1-0.3-1.7-0.7-2.1-1.2c-0.4-0.5-0.6-1.2-0.6-1.9c0-0.4,0.1-0.8,0.2-1.2c0.1-0.4,0.3-0.8,0.5-1.2l2.8-5.8
					c0.4-0.8,0.8-1.6,1.4-2.4c0.5-0.7,1.2-1.4,2-1.9c0.8-0.6,1.7-1,2.8-1.3c1.1-0.3,2.3-0.5,3.7-0.5c1.4,0,2.5,0.2,3.4,0.4
					c0.9,0.3,1.6,0.7,2,1.3c0.4,0.5,0.7,1.1,0.7,1.8c0,0.4,0,0.7-0.1,1.2c-0.1,0.4-0.2,0.7-0.3,1.1l-2.2,5.6
					c-0.7,1.7-1.8,3.2-3.4,4.3C37.7-3.6,35.3-2.9,32.3-2.8"/>
				<path class="st7" d="M44.4-3.7c2.3-8,3.5-8.5,5.5-16.4l4.1,0c1,3.4,1.5,4.6,2.7,7c0.8-2.5,1.2-3.7,1.8-7h4.9
					c-1.3,7.3-2.2,8.2-3.8,15.7l-4.5,0.2c-1.2-3.6-1.7-4.8-2.6-7.5c-0.9,2.8-1.4,4-2.4,7.8L44.4-3.7L44.4-3.7z M70.9-10.4l2.4-0.1
					l-0.2-5.2L70.9-10.4L70.9-10.4z M62.3-4.6c3.4-7.5,5.3-8.5,8-15.5l6.8,0l2.8,14.6l-6,0.3l-0.4-3.2l-3.5,0.1
					c-0.5,1.1-1,2.2-1.4,3.4L62.3-4.6L62.3-4.6z M82.6-5.6c0.5-6.7,1.2-8,1.3-14.5l4.1,0c1.9,2.8,2.9,3.7,4.7,6.1
					c0.2-2.4,0.4-3.7,0.4-6.1l6,0c-0.4,4.9-1.9,8.5-1.8,13.8l-4.1,0.2c-2-2.7-2.8-4.1-4.6-6.6c-0.2,2.6-0.3,3.8-0.4,6.8L82.6-5.6
					L82.6-5.6z M99.9-6.5l0.1-1.8c2.7-3.7,5-6.5,9.2-10.2l-6.9,0.3c0.2-0.7,0.3-1.3,0.4-2l14.6-0.1c-0.3,0.4-0.4,0.6-0.8,1.3
					c-4.7,3.3-7.7,6.7-10.9,10.3l5.6-0.1l-0.7,1.6L99.9-6.5L99.9-6.5z M120.9-11.3l2.3,0l2.8-6.2L120.9-11.3L120.9-11.3z M111.9-7.2
					c3.1-3,8.6-11.3,12.5-13.1l6.6,0c0.1,0.7-4.2,11.9-3.5,12.3l-5.7,0.3c0.1-0.2,0.2-0.6,0.6-1.6l-3.2,0c-1,1-1.4,1.4-2,1.9
					L111.9-7.2L111.9-7.2z"/>
			</g>
		</g>
	</g>
</g>
</svg>
