<svg xmlns="http://www.w3.org/2000/svg" width="21" height="21" fill="#e1e1e1" fill-rule="evenodd" xmlns:v="https://vecta.io/nano"><path d="M20.581 4.661V5.97c0 1.66-1.392 3.106-3.239 3.365l-.03.002-.091.008-.028.084c-.758 2.324-2.853 4.088-5.353 4.503-.393.121-.66.468-.666.871v3.946h3.8c.329 0 .644.121.876.336s.363.506.363.81a.22.22 0 0 1-.073.162c-.047.043-.11.067-.175.067H5.542c-.066 0-.129-.024-.175-.067a.22.22 0 0 1-.073-.162c0-.304.131-.595.363-.81s.548-.336.876-.336h3.692v-3.985c-.021-.399-.301-.738-.707-.846l-.087-.012-.057-.008-.059-.012c-2.403-.489-4.351-2.202-5.086-4.47l-.028-.086-.129-.01C2.249 9.023.926 7.614.926 5.97V4.661c0-1.14 1.038-2.069 2.314-2.069h.7l.021-.107C4.159 1.553 5.017.875 6.001.875h9.426c.985 0 1.842.678 2.038 1.611l.023.107h.779c.62 0 1.201.216 1.639.61s.675.908.675 1.459zm-3.071 2.79a6.46 6.46 0 0 1-.045.733l-.023.201.199-.057c1.172-.337 1.991-1.307 1.991-2.359V4.661c0-.635-.611-1.15-1.363-1.15h-.76v3.94zM1.875 5.972c0 1.039.766 1.976 1.906 2.334l.202.066-.023-.205c-.03-.251-.042-.485-.042-.713v-3.94h-.679c-.751 0-1.363.516-1.363 1.15v1.309z"/><path d="M17.342 9.335l.01.131.01-.001-.02-.13zm-.03.002l-.01-.131h-.003l.013.131zm-.091.008l-.013-.131-.092.008-.027.084.133.039zm-.028.084l-.133-.039h0l.133.039zm-5.353 4.503l-.024-.129-.01.002-.009.003.043.125zm-.666.871l-.139-.002v.002h.139zm0 3.946h-.139v.131h.139v-.131zm-5.807 1.308l.097-.094-.097.094zm4.858-1.308v.131h.139v-.131h-.139zm0-3.985h.139v-.007l-.139.007zm-.707-.846l.038-.126-.008-.002-.008-.001-.022.13zm-.087-.012l.02-.13h-.004l-.016.13zm-.057-.008l-.03.128h.002l.028-.129zm-.059-.012l.03-.128h0l-.029.128zm-5.086-4.47l-.133.038h0l.133-.038zm-.028-.086l.133-.038-.027-.085-.094-.007-.012.131zm-.129-.01l-.024.13h.012l.012-.131zM3.94 2.593v.131h.115l.021-.107-.137-.024zm.021-.107l-.136-.026v.002l.137.024zm13.503 0l-.136.025v.001l.136-.027zm.023.107l-.136.027.023.105h.113v-.131zm2.418.61l-.096.095h0l.096-.095zm-2.441 4.982l.138.014h0l-.138-.014zm-.023.201l-.138-.014-.023.198.202-.058-.041-.126zm.199-.057l-.04-.126h0l.041.126zm-.132-4.818V3.38h-.139v.131h.139zM3.781 8.306l.045-.124h-.002l-.044.125zm.202.066l-.045.124.207.067-.023-.206-.138.014zm-.023-.205l.138-.014h0l-.138.015zm-.042-4.653h.139v-.131h-.139v.131zm12.644 3.938h.139 0-.139zm-.002-4.561h-.139 0 .139zm4.161 3.08V4.661h-.278V5.97h.278zm-3.358 3.495c1.908-.267 3.358-1.764 3.358-3.495h-.278c0 1.589-1.336 2.985-3.12 3.235l.041.26zm-.04.003l.03-.002-.02-.262-.03.002.02.262zm-.088.008l.091-.008-.026-.261-.091.008.026.261zm.092-.008l.028-.084-.266-.078-.028.084.266.078zm-5.462 4.594c2.553-.424 4.689-2.224 5.462-4.594l-.266-.077c-.743 2.277-2.796 4.006-5.244 4.413l.048.259zm-.552.744c.006-.348.236-.645.571-.748l-.086-.25a1.06 1.06 0 0 0-.762.994l.278.004zm0 3.944v-3.946h-.278v3.946h.278zm-.139.131h3.8v-.262h-3.8v.262zm3.8 0a1.15 1.15 0 0 1 .779.298l.194-.188c-.259-.239-.609-.373-.973-.373v.262zm.779.298c.206.19.321.448.321.716h.278c0-.34-.146-.665-.405-.904l-.194.188zm.321.716c0 .025-.011.05-.031.068l.194.188a.35.35 0 0 0 .114-.256h-.278zm-.031.068c-.02.019-.048.03-.078.03v.263a.4.4 0 0 0 .272-.105l-.194-.188zm-.078.03H5.542v.263h10.423v-.263zm-10.423 0c-.03 0-.058-.011-.078-.03l-.194.188a.4.4 0 0 0 .272.105v-.263zm-.078-.03c-.02-.019-.031-.043-.031-.068h-.278a.35.35 0 0 0 .114.256l.194-.188zm-.031-.068c0-.268.115-.526.321-.716l-.194-.188c-.259.239-.405.564-.405.904h.278zm.321-.716a1.15 1.15 0 0 1 .779-.298v-.262c-.365 0-.715.134-.973.373l.194.188zm.779-.298h3.692v-.262H6.533v.262zm3.553-4.116v3.985h.278v-3.985h-.278zm-.606-.72a.8.8 0 0 1 .606.727l.278-.013c-.024-.453-.344-.841-.808-.966l-.076.252zm-.069-.009l.086.012.043-.259-.089-.013-.04.26zm-.065-.01l.069.01.031-.261-.045-.006-.056.257zm-.061-.013l.059.012.06-.256-.059-.012-.06.256zm-5.189-4.56c.749 2.312 2.736 4.061 5.189 4.56l.059-.257c-2.352-.479-4.262-2.157-4.982-4.381l-.266.077zm-.028-.087l.028.086.266-.076-.028-.086-.266.076zm-.008.083l.129.01.023-.262-.129-.01-.023.262zM.788 5.97c0 1.713 1.377 3.172 3.261 3.478l.047-.259c-1.763-.286-3.03-1.645-3.03-3.219H.788zm0-1.309V5.97h.278V4.661H.788zm2.453-2.2c-1.345 0-2.453.981-2.453 2.2h.278c0-1.061.968-1.938 2.175-1.938v-.262zm.7 0h-.7v.262h.7v-.262zm-.115 0l-.021.107.273.048.021-.107-.273-.048zM6.001.744c-1.053 0-1.966.724-2.176 1.716l.273.051c.185-.874.987-1.505 1.903-1.505V.744zm9.426 0H6.001v.263h9.426V.744zm2.174 1.716c-.208-.992-1.121-1.716-2.174-1.716v.263c.916 0 1.719.632 1.901 1.505l.273-.051zm.023.106l-.023-.107-.272.053.023.107.272-.053zm.643-.105h-.779v.262h.779v-.262zm1.735.647c-.464-.419-1.08-.647-1.735-.647v.262c.585 0 1.132.203 1.543.574l.192-.19zm.718 1.554c0-.588-.256-1.14-.718-1.554l-.191.19c.408.366.632.85.632 1.363h.278zm-3.117 3.537a6.56 6.56 0 0 0 .045-.747h-.278a6.32 6.32 0 0 1-.044.719l.276.028zm-.023.202l.023-.201-.276-.029-.023.201.276.029zm.021-.197l-.199.057.081.251.199-.058-.081-.251zm1.893-2.233c0 .987-.771 1.911-1.892 2.233l.081.251c1.222-.351 2.089-1.367 2.089-2.484h-.278zm0-1.309V5.97h.278V4.661h-.278zm-1.224-1.019c.69 0 1.224.47 1.224 1.019h.278c0-.721-.689-1.282-1.502-1.282v.262zm-.76 0h.76V3.38h-.76v.262zm.139 3.809v-3.94h-.278v3.94h.278zm-13.824.73c-1.09-.342-1.811-1.233-1.811-2.209h-.278c0 1.103.812 2.085 2.001 2.458l.088-.249zm.203.066l-.202-.066-.091.248.202.066.091-.248zm-.207-.067l.023.205.276-.028-.023-.205-.276.028zm-.043-.727a6.13 6.13 0 0 0 .043.728l.276-.029a5.88 5.88 0 0 1-.042-.698h-.278zm0-3.94v3.94h.278v-3.94h-.278zm-.54.131h.679v-.263h-.679v.263zM2.014 4.663c0-.549.534-1.019 1.224-1.019v-.263c-.813 0-1.502.561-1.502 1.282h.278zm0 1.309V4.663h-.278v1.309h.278zm14.408 1.479c0 3.051-2.562 5.527-5.706 5.527v.262c3.304 0 5.984-2.599 5.984-5.789h-.278zM16.42 2.89l.002 4.561h.278l-.002-4.561h-.278zm-.992-.964c.544 0 .992.429.992.964h.278c0-.673-.566-1.226-1.27-1.226v.262zm-9.426 0h9.426v-.262H6.001v.262zm-.992.964c0-.535.448-.964.992-.964v-.262c-.704 0-1.27.553-1.27 1.226h.278zm0 4.561V2.89h-.278v4.561h.278zm5.706 5.527c-3.144 0-5.706-2.475-5.706-5.527h-.278c0 3.19 2.68 5.789 5.984 5.789v-.262z" fill-rule="nonzero"/></svg>