<svg xmlns="http://www.w3.org/2000/svg" width="23" height="25" fill="none" fill-rule="evenodd" xmlns:v="https://vecta.io/nano"><g stroke="#e6be0b" stroke-width="1.2"><path d="M21.972 4.584c-.058-.663-.593-1.163-1.246-1.163H2.265c-.652 0-1.188.5-1.246 1.163-.008.087-.176 2.15.652 4.435.758 2.1 1.54 4.76 5.523 5.807a6.9 6.9 0 0 0 2.167 1.183l.2.318c.357.6.546 1.312.546 2.055a4.17 4.17 0 0 1-.211 1.318l-.153.46a.48.48 0 0 1-.455.329H8.75c-.895 0-1.624.743-1.624 1.657v.802l.01.713h8.726v-1.515c0-.914-.728-1.657-1.624-1.657h-.526a.48.48 0 0 1-.455-.329l-.153-.46a4.17 4.17 0 0 1-.211-1.318 4.03 4.03 0 0 1 .546-2.055l.2-.318a6.9 6.9 0 0 0 2.167-1.183c3.982-1.048 4.766-3.717 5.523-5.807.828-2.285.66-4.348.652-4.435z"/><path d="M5.48 9.42V3.4h11.932v6.02c0 3.584-2.676 6.5-5.966 6.5S5.48 13.004 5.48 9.42z"/></g><path d="M13.68 7.378l-.953-.144c-.042-.006-.077-.033-.096-.073l-.426-.9a.78.78 0 0 0-.7-.46.77.77 0 0 0-.7.46l-.426.9a.13.13 0 0 1-.096.073l-.953.144a.8.8 0 0 0-.64.562c-.095.302-.017.625.2.847l.7.7c.03.03.044.074.037.118l-.163 1c-.05.312.07.62.315.808a.76.76 0 0 0 .834.063l.852-.467c.037-.02.08-.02.12 0l.852.467c.117.064.243.096.37.096.164 0 .326-.053.465-.16.246-.186.366-.496.315-.808l-.163-1c-.007-.043.007-.087.037-.118l.7-.7c.217-.22.294-.545.2-.846a.8.8 0 0 0-.64-.562zm-.3.96l-.6.615a.75.75 0 0 0-.198.642l.14.87c.01.062-.023.098-.044.114s-.063.038-.116.01l-.74-.4a.66.66 0 0 0-.64 0l-.74.4c-.053.03-.096.007-.116-.01s-.054-.052-.044-.114l.14-.87a.75.75 0 0 0-.198-.642l-.6-.615c-.043-.044-.036-.094-.028-.12a.11.11 0 0 1 .09-.08l.827-.127a.69.69 0 0 0 .518-.397l.37-.8c.026-.057.073-.065.1-.065s.073.008.1.065l.37.8a.69.69 0 0 0 .518.397l.827.127c.06.01.08.054.1.08s.015.076-.028.12h0z" fill="#e6be0b" fill-rule="nonzero"/><path d="M7.763 1H6.45a.96.96 0 0 0-.96.96v1.92M11.395 1h5.04a.96.96 0 0 1 .96.96v1.92" stroke="#e6be0b" stroke-width="1.2" stroke-linecap="round"/></svg>