<svg xmlns="http://www.w3.org/2000/svg" width="48" height="48" fill="#7cc12a" fill-rule="nonzero" xmlns:v="https://vecta.io/nano"><path d="M34.807 20.683c-.165-.503-.602-.87-1.13-.946l-6.08-.877-2.72-5.477a1.4 1.4 0 0 0-1.253-.774h0a1.4 1.4 0 0 0-1.253.775l-2.718 5.48-6.08.88c-.527.076-.964.443-1.128.946s-.027 1.055.354 1.424l4.402 4.263-1.037 6.02a1.37 1.37 0 0 0 .557 1.36 1.4 1.4 0 0 0 1.47.105l5.438-2.844 5.44 2.84c.47.246 1.042.205 1.472-.106s.646-.838.556-1.36l-1.04-6.02 4.4-4.265c.38-.37.518-.922.353-1.425zm-7.23 4.2c-.33.32-.48.78-.402 1.23l.685 3.966-3.583-1.87a1.4 1.4 0 0 0-1.3 0l-3.582 1.873.683-3.966c.078-.45-.073-.9-.402-1.23l-2.9-2.808 4.005-.58c.455-.066.85-.35 1.052-.76l1.8-3.6 1.792 3.608c.204.4.597.694 1.053.76l4.005.578-2.897 2.8zM23.662 0C36.668 0 47.25 10.53 47.25 23.473a23.17 23.17 0 0 1-2.291 10.102 1.81 1.81 0 0 1-2.42.851c-.904-.43-1.287-1.508-.856-2.407a19.6 19.6 0 0 0 1.937-8.546c0-10.952-8.954-19.862-19.96-19.862a20.04 20.04 0 0 0-9.774 2.54 1.82 1.82 0 0 1-2.471-.688 1.8 1.8 0 0 1 .692-2.459A23.69 23.69 0 0 1 23.662 0zm16.892 37.6c.712.686.73 1.816.038 2.523l-.047.048c-.352.358-.818.538-1.285.538a1.8 1.8 0 0 1-1.254-.508c-.7-.688-.723-1.818-.03-2.523l.04-.04c.7-.707 1.827-.724 2.54-.038zM35.7 41.884c.484.875.164 1.976-.714 2.458a23.7 23.7 0 0 1-11.38 2.908C10.6 47.25 0 36.697 0 23.726c0-3.396.7-6.674 2.114-9.742a1.82 1.82 0 0 1 2.405-.897c.913.414 1.316 1.487.9 2.397-1.186 2.594-1.787 5.367-1.787 8.242 0 10.976 8.96 19.905 19.976 19.905a20.05 20.05 0 0 0 9.626-2.459 1.82 1.82 0 0 1 2.467.712zM9.073 7.706a1.78 1.78 0 0 1 .09 2.526l-.032.034a1.8 1.8 0 0 1-2.543.098 1.78 1.78 0 0 1-.099-2.526l.04-.043a1.81 1.81 0 0 1 2.543-.09z"/></svg>