<?xml version="1.0" encoding="utf-8"?>
<!-- Generator: Adobe Illustrator 26.5.0, SVG Export Plug-In . SVG Version: 6.00 Build 0)  -->
<svg version="1.1" id="Layer_1" xmlns="http://www.w3.org/2000/svg" xmlns:xlink="http://www.w3.org/1999/xlink" x="0px" y="0px"
	 viewBox="0 0 702.7 68.9" style="enable-background:new 0 0 702.7 68.9;" xml:space="preserve">
<style type="text/css">
	.st0{fill:#FFFFFF;}
	.st1{fill:#D82A2D;}
	.st2{fill:#DF3363;}
</style>
<g id="XMLID_1_">
	<path id="XMLID_3_" class="st0" d="M0,0.1c8.4,0,16.8-0.1,25.2,0C35.2,0.7,44,7.4,48.8,16c4.8,9.1,9,18.5,13.9,27.5
		c1.6,3.2,4.8,5.4,8.4,5.5C70.9,32.7,71,16.4,71,0c7.4,0.1,14.7,0,22.1,0c0,7.1,0,14.2-0.1,21.4c-5.1,2-9.4,6.5-9.5,12.2
		c-0.7,6.2,3.9,11.8,9.5,13.7c0.1,7.2,0,14.3,0.1,21.5c-7.3,0.1-14.7,0-22,0.1c-8.5,0.4-16.9-3.5-22.3-9.9
		c-6-7.3-9.1-16.5-13.6-24.6C32.1,28.6,29.9,20,22,19.7c0,16.4-0.1,32.7,0.1,49.1c-7.4,0.1-14.7,0.1-22.1,0C0.1,45.9,0.1,23,0,0.1z"
		/>
	<path id="XMLID_6_" class="st0" d="M99.6,0.1c62.4,0,124.7-0.2,187.1,0.1c9.3,16.9,18.8,33.7,28,50.6c9.2-16.8,17.7-34,26.8-50.8
		c7.8,0.1,15.6-0.1,23.5,0.2c-1.3,1.9-2.6,3.8-3.7,5.8c-11,21-22.1,41.9-33.2,62.8c-8.9,0-17.9,0-26.8,0
		c-9.7-17.5-19.6-35-29.2-52.5c-9.8-0.1-19.7,0-29.5,0c0,17.5,0.1,35,0,52.5c-7.1,0-14.1,0-21.2,0c0-17.5,0.1-35,0-52.6
		c-10.8,0.1-21.7,0-32.5,0.1c2,7.5,1.8,15.3,1.5,23c-0.3,7.8-2.4,16.2-8.2,21.8c-5.6,5.8-14,7.8-21.8,7.7
		c-20.2-0.1-40.4,0.1-60.5-0.1c0.1-7.2,0-14.3,0.1-21.4c4.8-1.9,8.9-5.8,9.4-11.2c1-6.5-3.5-12.6-9.4-14.7
		C99.6,14.3,99.8,7.2,99.6,0.1 M121.1,16.5c0.2,12,0.1,23.9,0.1,35.9c12.1,0.2,24.2,0.1,36.2,0.1c4.7,0.2,10.3-2.4,11-7.6
		c0.4-6.7,0.3-13.4,0.1-20.1c-0.5-5.4-6.1-8.4-11.1-8.3C145.3,16.3,133.2,16.2,121.1,16.5z"/>
	<path id="XMLID_7_" class="st1" d="M83.5,33.6c0.1-5.8,4.5-10.4,9.6-12.3c2.2-0.2,4.6-0.2,6.8,0c6,2.2,10.5,8.3,9.5,14.9
		c-0.4,5.4-4.7,9.4-9.5,11.3c-2.2,0.2-4.6,0.2-6.8,0C87.4,45.5,82.8,40,83.5,33.6z"/>
	<g>
		<path class="st2" d="M404.1,24.1c-0.8-1.3-2-2.4-3.5-3.1s-3.4-1.1-5.5-1.1c-4.1,0-7.2,1.3-9.4,3.9c-2.2,2.6-3.3,6.2-3.3,10.8
			c0,5.3,1.2,9.2,3.7,11.8s6.3,3.9,11.4,3.9c4.9,0,8.8-2,11.8-5.9h-16.8V29.5h34.3v21.1c-2.9,5-6.9,9.3-12.1,12.9
			c-5.1,3.6-11.6,5.4-19.5,5.4c-7,0-13-1.4-18.2-4.3s-9.1-6.9-11.9-12.1S361,41.4,361,34.7s1.4-12.6,4.1-17.8
			c2.8-5.2,6.7-9.2,11.8-12.1c5.1-2.9,11.1-4.3,18-4.3c8.8,0,16,2.1,21.5,6.4c5.5,4.2,8.8,10,9.8,17.3h-22.1V24.1z"/>
		<path class="st2" d="M477.4,58.1H455l-3.3,10.2h-22.1l24.6-67.2h24.3L503,68.3h-22.2L477.4,58.1z M472.2,42.3l-6.1-18.7L460,42.3
			H472.2z"/>
		<path class="st2" d="M588.5,1.1v67.2h-21V34.8l-10.3,33.5h-18l-10.4-33.5v33.5h-21.1V1.1h25.8l14.8,40.4l14.4-40.4
			C562.7,1.1,588.5,1.1,588.5,1.1z"/>
		<path class="st2" d="M619,17.9v8.3h20.9V42H619v9.5h23.7v16.8H598V1.1h44.8v16.8H619z"/>
		<path class="st2" d="M657.2,63.3c-5.2-3.8-8.1-9.3-8.5-16.6h22.4c0.3,3.9,2,5.8,5.1,5.8c1.1,0,2.1-0.3,2.9-0.8
			c0.8-0.5,1.2-1.4,1.2-2.5c0-1.6-0.9-2.9-2.6-3.8c-1.7-1-4.4-2.1-8-3.4c-4.3-1.5-7.9-3-10.7-4.5s-5.2-3.6-7.3-6.4
			c-2-2.8-3-6.4-2.9-10.7c0-4.4,1.1-8.1,3.4-11.2c2.2-3.1,5.3-5.4,9.2-7s8.3-2.4,13.2-2.4c8.2,0,14.8,1.9,19.6,5.7s7.4,9.1,7.6,16
			h-22.7c-0.1-1.9-0.5-3.3-1.4-4.1c-0.9-0.8-2-1.2-3.2-1.2c-0.9,0-1.6,0.3-2.2,0.9c-0.6,0.6-0.9,1.4-0.9,2.5c0,1.5,0.8,2.8,2.5,3.8
			s4.4,2.2,8,3.6c4.2,1.6,7.7,3.1,10.5,4.6c2.8,1.5,5.1,3.5,7.2,6.1c2,2.6,3,5.9,3,9.8c0,4.1-1,7.8-3,11.1c-2,3.3-5,5.8-8.8,7.6
			C686.9,68,682.3,69,677,69C669,69,662.4,67.1,657.2,63.3z"/>
	</g>
</g>
</svg>
