<?xml version="1.0" encoding="utf-8"?>
<!-- Generator: Adobe Illustrator 26.1.0, SVG Export Plug-In . SVG Version: 6.00 Build 0)  -->
<svg version="1.1" id="Layer_1" xmlns:v="https://vecta.io/nano"
	 xmlns="http://www.w3.org/2000/svg" xmlns:xlink="http://www.w3.org/1999/xlink" x="0px" y="0px" viewBox="0 0 21 21"
	 style="enable-background:new 0 0 21 21;" xml:space="preserve">
<style type="text/css">
	.st0{fill-rule:evenodd;clip-rule:evenodd;fill:#F4C70C;}
	.st1{fill:#F9E130;}
</style>
<path class="st0" d="M20.6,4.7V6c0,1.7-1.4,3.1-3.2,3.4l0,0l-0.1,0l0,0.1c-0.8,2.3-2.9,4.1-5.4,4.5c-0.4,0.1-0.7,0.5-0.7,0.9v3.9H15
	c0.3,0,0.6,0.1,0.9,0.3s0.4,0.5,0.4,0.8c0,0.1,0,0.1-0.1,0.2c0,0-0.1,0.1-0.2,0.1H5.5c-0.1,0-0.1,0-0.2-0.1c0,0-0.1-0.1-0.1-0.2
	c0-0.3,0.1-0.6,0.4-0.8s0.5-0.3,0.9-0.3h3.7v-4c0-0.4-0.3-0.7-0.7-0.8l-0.1,0l-0.1,0l-0.1,0C6.9,13.4,5,11.7,4.2,9.4l0-0.1l-0.1,0
	C2.2,9,0.9,7.6,0.9,6V4.7c0-1.1,1-2.1,2.3-2.1h0.7l0-0.1C4.2,1.6,5,0.9,6,0.9h9.4c1,0,1.8,0.7,2,1.6l0,0.1h0.8
	c0.6,0,1.2,0.2,1.6,0.6S20.6,4.1,20.6,4.7L20.6,4.7z M17.5,7.5c0,0.2,0,0.5,0,0.7l0,0.2l0.2-0.1c1.2-0.3,2-1.3,2-2.4V4.7
	c0-0.6-0.6-1.2-1.4-1.2h-0.8L17.5,7.5L17.5,7.5z M1.9,6c0,1,0.8,2,1.9,2.3L4,8.4l0-0.2c0-0.3,0-0.5,0-0.7V3.5H3.2
	C2.5,3.5,1.9,4,1.9,4.7L1.9,6L1.9,6z"/>
<path class="st1" d="M17.3,9.3l0,0.1l0,0C17.4,9.5,17.3,9.3,17.3,9.3z M17.3,9.3l0-0.1h0L17.3,9.3z M17.2,9.3l0-0.1l-0.1,0l0,0.1
	L17.2,9.3L17.2,9.3z M17.2,9.4l-0.1,0l0,0L17.2,9.4z M11.8,13.9l0-0.1l0,0l0,0L11.8,13.9L11.8,13.9z M11.2,14.8l-0.1,0v0H11.2z
	 M11.2,18.7H11v0.1h0.1V18.7z M5.4,20.1L5.4,20.1L5.4,20.1z M10.2,18.7v0.1h0.1v-0.1H10.2z M10.2,14.8h0.1v0L10.2,14.8z M9.5,13.9
	l0-0.1l0,0l0,0L9.5,13.9L9.5,13.9z M9.4,13.9l0-0.1h0C9.4,13.8,9.4,13.9,9.4,13.9z M9.4,13.9l0,0.1h0L9.4,13.9L9.4,13.9z M9.3,13.9
	l0-0.1l0,0L9.3,13.9L9.3,13.9z M4.2,9.4l-0.1,0l0,0L4.2,9.4z M4.2,9.3l0.1,0l0-0.1l-0.1,0L4.2,9.3L4.2,9.3z M4.1,9.3l0,0.1h0
	L4.1,9.3L4.1,9.3z M3.9,2.6v0.1h0.1l0-0.1L3.9,2.6L3.9,2.6z M4,2.5l-0.1,0v0L4,2.5L4,2.5z M17.5,2.5l-0.1,0v0L17.5,2.5L17.5,2.5z
	 M17.5,2.6l-0.1,0l0,0.1h0.1L17.5,2.6L17.5,2.6z M19.9,3.2L19.9,3.2L19.9,3.2L19.9,3.2z M17.5,8.2l0.1,0l0,0L17.5,8.2z M17.4,8.4
	l-0.1,0l0,0.2l0.2-0.1C17.5,8.5,17.4,8.4,17.4,8.4z M17.6,8.3l0-0.1l0,0L17.6,8.3L17.6,8.3z M17.5,3.5V3.4h-0.1v0.1
	C17.4,3.5,17.5,3.5,17.5,3.5z M3.8,8.3l0-0.1h0L3.8,8.3L3.8,8.3z M4,8.4l0,0.1l0.2,0.1l0-0.2L4,8.4L4,8.4z M4,8.2l0.1,0l0,0L4,8.2
	L4,8.2z M3.9,3.5h0.1V3.4H3.9V3.5z M16.6,7.5h0.1l0,0H16.6z M16.6,2.9h-0.1l0,0H16.6z M20.7,6V4.7h-0.3V6L20.7,6L20.7,6z M17.4,9.5
	c1.9-0.3,3.4-1.8,3.4-3.5h-0.3c0,1.6-1.3,3-3.1,3.2L17.4,9.5L17.4,9.5z M17.3,9.5L17.3,9.5l0-0.3l0,0L17.3,9.5z M17.2,9.5L17.2,9.5
	l0.1-0.3l-0.1,0L17.2,9.5z M17.3,9.5L17.3,9.5l-0.2-0.2l0,0.1L17.3,9.5z M11.9,14.1c2.6-0.4,4.7-2.2,5.5-4.6l-0.3-0.1
	c-0.7,2.3-2.8,4-5.2,4.4L11.9,14.1L11.9,14.1z M11.3,14.8c0-0.3,0.2-0.6,0.6-0.7l-0.1-0.2c-0.4,0.1-0.8,0.5-0.8,1L11.3,14.8
	L11.3,14.8z M11.3,18.8v-3.9H11v3.9H11.3z M11.2,18.9H15v-0.3h-3.8V18.9z M15,18.9c0.3,0,0.6,0.1,0.8,0.3l0.2-0.2
	c-0.3-0.2-0.6-0.4-1-0.4L15,18.9L15,18.9z M15.8,19.2c0.2,0.2,0.3,0.4,0.3,0.7h0.3c0-0.3-0.1-0.7-0.4-0.9
	C15.9,19,15.8,19.2,15.8,19.2z M16.1,19.9C16.1,19.9,16.1,19.9,16.1,19.9l0.2,0.3c0.1-0.1,0.1-0.2,0.1-0.3H16.1L16.1,19.9z M16,20
	C16,20,16,20,16,20L16,20.3c0.1,0,0.2,0,0.3-0.1C16.2,20.2,16,20,16,20z M16,20H5.5v0.3H16C16,20.3,16,20,16,20z M5.5,20
	C5.5,20,5.5,20,5.5,20l-0.3,0.2c0.1,0.1,0.2,0.1,0.3,0.1C5.5,20.3,5.5,20,5.5,20z M5.5,20C5.4,19.9,5.4,19.9,5.5,20l-0.3-0.1
	c0,0.1,0,0.2,0.1,0.3L5.5,20L5.5,20z M5.4,19.9c0-0.3,0.1-0.5,0.3-0.7L5.6,19c-0.3,0.2-0.4,0.6-0.4,0.9C5.2,19.9,5.4,19.9,5.4,19.9z
	 M5.8,19.2C6,19,6.2,18.9,6.5,18.9v-0.3c-0.4,0-0.7,0.1-1,0.4L5.8,19.2L5.8,19.2z M6.5,18.9h3.7v-0.3H6.5
	C6.5,18.6,6.5,18.9,6.5,18.9z M10.1,14.8v4h0.3v-4H10.1z M9.5,14c0.3,0.1,0.6,0.4,0.6,0.7l0.3,0c0-0.5-0.3-0.8-0.8-1
	C9.6,13.8,9.5,14,9.5,14z M9.4,14L9.4,14l0.1-0.2l-0.1,0C9.5,13.8,9.4,14,9.4,14z M9.3,14L9.3,14l0.1-0.3l0,0L9.3,14L9.3,14z
	 M9.3,14L9.3,14l0.1-0.2l-0.1,0L9.3,14z M4.1,9.5c0.7,2.3,2.7,4.1,5.2,4.6l0.1-0.3c-2.4-0.5-4.3-2.2-5-4.4L4.1,9.5L4.1,9.5z
	 M4.1,9.4L4.1,9.4l0.3,0l0-0.1L4.1,9.4z M4.1,9.5l0.1,0l0-0.3l-0.1,0L4.1,9.5z M0.8,6c0,1.7,1.4,3.2,3.3,3.5l0-0.3
	c-1.8-0.3-3-1.6-3-3.2C1.1,6,0.8,6,0.8,6z M0.8,4.7V6h0.3V4.7H0.8z M3.2,2.5c-1.3,0-2.5,1-2.5,2.2h0.3c0-1.1,1-1.9,2.2-1.9V2.5z
	 M3.9,2.5H3.2v0.3h0.7V2.5z M3.8,2.5l0,0.1l0.3,0l0-0.1C4.1,2.5,3.8,2.5,3.8,2.5z M6,0.7c-1.1,0-2,0.7-2.2,1.7l0.3,0.1
	C4.3,1.6,5.1,1,6,1C6,1,6,0.7,6,0.7z M15.4,0.7H6V1h9.4V0.7z M17.6,2.5c-0.2-1-1.1-1.7-2.2-1.7V1c0.9,0,1.7,0.6,1.9,1.5L17.6,2.5
	L17.6,2.5z M17.6,2.6l0-0.1l-0.3,0.1l0,0.1L17.6,2.6z M18.3,2.5h-0.8v0.3h0.8V2.5z M20,3.1c-0.5-0.4-1.1-0.6-1.7-0.6v0.3
	c0.6,0,1.1,0.2,1.5,0.6L20,3.1L20,3.1z M20.7,4.7c0-0.6-0.3-1.1-0.7-1.6l-0.2,0.2c0.4,0.4,0.6,0.8,0.6,1.4L20.7,4.7L20.7,4.7z
	 M17.6,8.2c0-0.2,0-0.5,0-0.7h-0.3c0,0.2,0,0.5,0,0.7L17.6,8.2L17.6,8.2z M17.6,8.4l0-0.2l-0.3,0l0,0.2L17.6,8.4z M17.6,8.2
	l-0.2,0.1l0.1,0.3l0.2-0.1L17.6,8.2L17.6,8.2z M19.5,6c0,1-0.8,1.9-1.9,2.2l0.1,0.3c1.2-0.4,2.1-1.4,2.1-2.5H19.5z M19.5,4.7V6h0.3
	V4.7L19.5,4.7L19.5,4.7z M18.3,3.6c0.7,0,1.2,0.5,1.2,1h0.3c0-0.7-0.7-1.3-1.5-1.3L18.3,3.6L18.3,3.6z M17.5,3.6h0.8V3.4h-0.8V3.6
	L17.5,3.6z M17.6,7.5V3.5h-0.3v3.9H17.6z M3.8,8.2C2.7,7.8,2,6.9,2,6H1.7c0,1.1,0.8,2.1,2,2.5C3.7,8.4,3.8,8.2,3.8,8.2z M4,8.2
	L3.8,8.2L3.7,8.4l0.2,0.1L4,8.2z M3.8,8.2l0,0.2l0.3,0l0-0.2C4.1,8.2,3.8,8.2,3.8,8.2z M3.8,7.5c0,0.2,0,0.5,0,0.7l0.3,0
	c0-0.2,0-0.5,0-0.7L3.8,7.5L3.8,7.5z M3.8,3.5v3.9h0.3V3.5H3.8z M3.2,3.6h0.7V3.4H3.2V3.6z M2,4.7c0-0.5,0.5-1,1.2-1V3.4
	c-0.8,0-1.5,0.6-1.5,1.3H2z M2,6V4.7H1.7V6H2z M16.4,7.5c0,3.1-2.6,5.5-5.7,5.5v0.3c3.3,0,6-2.6,6-5.8C16.7,7.5,16.4,7.5,16.4,7.5z
	 M16.4,2.9l0,4.6h0.3l0-4.6C16.7,2.9,16.4,2.9,16.4,2.9z M15.4,1.9c0.5,0,1,0.4,1,1h0.3c0-0.7-0.6-1.2-1.3-1.2
	C15.4,1.7,15.4,1.9,15.4,1.9z M6,1.9h9.4V1.7H6L6,1.9L6,1.9z M5,2.9c0-0.5,0.4-1,1-1V1.7c-0.7,0-1.3,0.6-1.3,1.2H5z M5,7.5V2.9H4.7
	v4.6H5z M10.7,13C7.6,13,5,10.5,5,7.5H4.7c0,3.2,2.7,5.8,6,5.8C10.7,13.2,10.7,13,10.7,13z"/>
</svg>
